<svg width="32" height="32" viewBox="0 0 32 32" fill="none" xmlns="http://www.w3.org/2000/svg">
  <defs>
    <!-- Gradient for the pin -->
    <linearGradient id="pinGradient" x1="0%" y1="0%" x2="100%" y2="100%">
      <stop offset="0%" stop-color="#ADF434" />
      <stop offset="50%" stop-color="#9FE02A" />
      <stop offset="100%" stop-color="#07402F" />
    </linearGradient>
    <!-- Gradient for buildings -->
    <linearGradient id="buildingGradient" x1="0%" y1="0%" x2="100%" y2="100%">
      <stop offset="0%" stop-color="#ADF434" />
      <stop offset="100%" stop-color="#9FE02A" />
    </linearGradient>
  </defs>

  <!-- Main pin shape -->
  <path
    d="M16 3 C11 3, 7 7, 7 12 C7 17, 16 25, 16 25 C16 25, 25 17, 25 12 C25 7, 21 3, 16 3 Z"
    fill="url(#pinGradient)"
    stroke="#07402F"
    stroke-width="0.3"
  />

  <!-- Inner circle background -->
  <circle cx="16" cy="12" r="6" fill="#07402F" />

  <!-- Buildings -->
  <g fill="url(#buildingGradient)">
    <!-- Building 1 -->
    <rect x="12" y="9" width="2" height="6" rx="0.3" />
    <rect x="12.3" y="9.5" width="0.4" height="0.4" fill="#07402F" />
    <rect x="13.3" y="9.5" width="0.4" height="0.4" fill="#07402F" />
    <rect x="12.3" y="11" width="0.4" height="0.4" fill="#07402F" />
    <rect x="13.3" y="11" width="0.4" height="0.4" fill="#07402F" />

    <!-- Building 2 (center, tallest) -->
    <rect x="14.5" y="7.5" width="3" height="7.5" rx="0.3" />
    <rect x="15" y="8" width="0.4" height="0.4" fill="#07402F" />
    <rect x="16" y="8" width="0.4" height="0.4" fill="#07402F" />
    <rect x="16.6" y="8" width="0.4" height="0.4" fill="#07402F" />
    <rect x="15" y="9.5" width="0.4" height="0.4" fill="#07402F" />
    <rect x="16" y="9.5" width="0.4" height="0.4" fill="#07402F" />
    <rect x="16.6" y="9.5" width="0.4" height="0.4" fill="#07402F" />

    <!-- Building 3 -->
    <rect x="18" y="8.5" width="2" height="6.5" rx="0.3" />
    <rect x="18.3" y="9" width="0.4" height="0.4" fill="#07402F" />
    <rect x="19.3" y="9" width="0.4" height="0.4" fill="#07402F" />
    <rect x="18.3" y="10.5" width="0.4" height="0.4" fill="#07402F" />
    <rect x="19.3" y="10.5" width="0.4" height="0.4" fill="#07402F" />
  </g>

  <!-- Ground -->
  <path
    d="M 10 15 Q 13 14.5, 16 14.8 Q 19 15, 22 14.5 L 22 15.5 L 10 15.5 Z"
    fill="#ADF434"
    opacity="0.6"
  />

  <!-- Verification checkmark -->
  <circle cx="22" cy="8" r="2.5" fill="#ADF434" stroke="#07402F" stroke-width="0.2" />
  <path d="M 20.5 8 L 21.5 9 L 23.5 7" stroke="#07402F" stroke-width="0.8" stroke-linecap="round" stroke-linejoin="round" fill="none" />
</svg>
