<svg xmlns="http://www.w3.org/2000/svg" width="96" height="96" viewBox="0 0 96 96"><defs><linearGradient id="addGradient" x1="0%" x2="100%" y1="0%" y2="100%"><stop offset="0%" stop-color="#ADF434"/><stop offset="50%" stop-color="#9FE02A"/><stop offset="100%" stop-color="#07402F"/></linearGradient><radialGradient id="bgGradient" cx="50%" cy="50%"><stop offset="0%" stop-color="#07402F"/><stop offset="100%" stop-color="#05301F"/></radialGradient><linearGradient id="houseGradient" x1="0%" x2="100%" y1="0%" y2="100%"><stop offset="0%" stop-color="#ADF434"/><stop offset="100%" stop-color="#9FE02A"/></linearGradient></defs><circle cx="48" cy="48" r="48" fill="url(#bgGradient)"/><path fill="url(#houseGradient)" d="M30 45 L48 30 L66 45 L66 65 L30 65 Z" opacity=".3"/><path fill="none" stroke="url(#houseGradient)" stroke-linejoin="round" stroke-width="2" d="M28 45 L48 28 L68 45" opacity=".5"/><circle cx="65" cy="35" r="18" fill="url(#addGradient)" opacity=".9"/><rect width="6" height="22" x="62" y="24" fill="#07402F" rx="3"/><rect width="22" height="6" x="54" y="32" fill="#07402F" rx="3"/><rect width="3" height="8" x="40" y="45" fill="#07402F" opacity=".6" rx=".5"/><rect width="4" height="11" x="45" y="42" fill="#07402F" opacity=".6" rx=".5"/><rect width="3" height="6" x="51" y="47" fill="#07402F" opacity=".6" rx=".5"/><rect width="4" height="10" x="46" y="55" fill="#07402F" opacity=".8" rx=".5"/></svg>